<mxfile host="app.diagrams.net" modified="2024-06-04T19:24:52.812Z" agent="Mozilla/5.0 (Windows NT 10.0; Win64; x64) AppleWebKit/537.36 (KHTML, like Gecko) Chrome/125.0.0.0 Safari/537.36" etag="5br7GxUs1jEY0qMzk48_" version="24.4.13" type="device">
  <diagram name="Страница — 1" id="KfzFbNpuO4F_3T5yf219">
    <mxGraphModel dx="5698" dy="1230" grid="0" gridSize="10" guides="1" tooltips="1" connect="1" arrows="1" fold="1" page="1" pageScale="1" pageWidth="1654" pageHeight="1169" math="0" shadow="0">
      <root>
        <mxCell id="0" />
        <mxCell id="1" parent="0" />
        <mxCell id="C4IJJKCAS7BINVU8155Y-14" value="Отделы&amp;nbsp;" style="swimlane;fontStyle=0;childLayout=stackLayout;horizontal=1;startSize=30;horizontalStack=0;resizeParent=1;resizeParentMax=0;resizeLast=0;collapsible=1;marginBottom=0;whiteSpace=wrap;html=1;fontSize=18;" parent="1" vertex="1">
          <mxGeometry x="-1800" y="216" width="158" height="180" as="geometry" />
        </mxCell>
        <mxCell id="C4IJJKCAS7BINVU8155Y-15" value="id_отдела" style="text;strokeColor=none;fillColor=none;align=left;verticalAlign=middle;spacingLeft=4;spacingRight=4;overflow=hidden;points=[[0,0.5],[1,0.5]];portConstraint=eastwest;rotatable=0;whiteSpace=wrap;html=1;fontSize=18;" parent="C4IJJKCAS7BINVU8155Y-14" vertex="1">
          <mxGeometry y="30" width="158" height="30" as="geometry" />
        </mxCell>
        <mxCell id="C4IJJKCAS7BINVU8155Y-16" value="название_отдела" style="text;strokeColor=none;fillColor=none;align=left;verticalAlign=middle;spacingLeft=4;spacingRight=4;overflow=hidden;points=[[0,0.5],[1,0.5]];portConstraint=eastwest;rotatable=0;whiteSpace=wrap;html=1;fontSize=18;" parent="C4IJJKCAS7BINVU8155Y-14" vertex="1">
          <mxGeometry y="60" width="158" height="30" as="geometry" />
        </mxCell>
        <mxCell id="C4IJJKCAS7BINVU8155Y-18" value="телефон_отдела" style="text;strokeColor=none;fillColor=none;align=left;verticalAlign=middle;spacingLeft=4;spacingRight=4;overflow=hidden;points=[[0,0.5],[1,0.5]];portConstraint=eastwest;rotatable=0;whiteSpace=wrap;html=1;fontSize=18;" parent="C4IJJKCAS7BINVU8155Y-14" vertex="1">
          <mxGeometry y="90" width="158" height="30" as="geometry" />
        </mxCell>
        <mxCell id="C4IJJKCAS7BINVU8155Y-19" value="директор_отдела" style="text;strokeColor=none;fillColor=none;align=left;verticalAlign=middle;spacingLeft=4;spacingRight=4;overflow=hidden;points=[[0,0.5],[1,0.5]];portConstraint=eastwest;rotatable=0;whiteSpace=wrap;html=1;fontSize=18;" parent="C4IJJKCAS7BINVU8155Y-14" vertex="1">
          <mxGeometry y="120" width="158" height="30" as="geometry" />
        </mxCell>
        <mxCell id="C4IJJKCAS7BINVU8155Y-20" value="описание_отдела" style="text;strokeColor=none;fillColor=none;align=left;verticalAlign=middle;spacingLeft=4;spacingRight=4;overflow=hidden;points=[[0,0.5],[1,0.5]];portConstraint=eastwest;rotatable=0;whiteSpace=wrap;html=1;fontSize=18;" parent="C4IJJKCAS7BINVU8155Y-14" vertex="1">
          <mxGeometry y="150" width="158" height="30" as="geometry" />
        </mxCell>
        <mxCell id="C4IJJKCAS7BINVU8155Y-21" value="Должности&amp;nbsp;" style="swimlane;fontStyle=0;childLayout=stackLayout;horizontal=1;startSize=30;horizontalStack=0;resizeParent=1;resizeParentMax=0;resizeLast=0;collapsible=1;marginBottom=0;whiteSpace=wrap;html=1;fontSize=18;" parent="1" vertex="1">
          <mxGeometry x="-1560" y="187" width="191" height="180" as="geometry" />
        </mxCell>
        <mxCell id="C4IJJKCAS7BINVU8155Y-22" value="id_должности" style="text;strokeColor=none;fillColor=none;align=left;verticalAlign=middle;spacingLeft=4;spacingRight=4;overflow=hidden;points=[[0,0.5],[1,0.5]];portConstraint=eastwest;rotatable=0;whiteSpace=wrap;html=1;fontSize=18;" parent="C4IJJKCAS7BINVU8155Y-21" vertex="1">
          <mxGeometry y="30" width="191" height="30" as="geometry" />
        </mxCell>
        <mxCell id="C4IJJKCAS7BINVU8155Y-23" value="id_отдела" style="text;strokeColor=none;fillColor=none;align=left;verticalAlign=middle;spacingLeft=4;spacingRight=4;overflow=hidden;points=[[0,0.5],[1,0.5]];portConstraint=eastwest;rotatable=0;whiteSpace=wrap;html=1;fontSize=18;" parent="C4IJJKCAS7BINVU8155Y-21" vertex="1">
          <mxGeometry y="60" width="191" height="30" as="geometry" />
        </mxCell>
        <mxCell id="C4IJJKCAS7BINVU8155Y-24" value="название_должности" style="text;strokeColor=none;fillColor=none;align=left;verticalAlign=middle;spacingLeft=4;spacingRight=4;overflow=hidden;points=[[0,0.5],[1,0.5]];portConstraint=eastwest;rotatable=0;whiteSpace=wrap;html=1;fontSize=18;" parent="C4IJJKCAS7BINVU8155Y-21" vertex="1">
          <mxGeometry y="90" width="191" height="30" as="geometry" />
        </mxCell>
        <mxCell id="C4IJJKCAS7BINVU8155Y-25" value="оклад" style="text;strokeColor=none;fillColor=none;align=left;verticalAlign=middle;spacingLeft=4;spacingRight=4;overflow=hidden;points=[[0,0.5],[1,0.5]];portConstraint=eastwest;rotatable=0;whiteSpace=wrap;html=1;fontSize=18;" parent="C4IJJKCAS7BINVU8155Y-21" vertex="1">
          <mxGeometry y="120" width="191" height="30" as="geometry" />
        </mxCell>
        <mxCell id="C4IJJKCAS7BINVU8155Y-26" value="описание_должности" style="text;strokeColor=none;fillColor=none;align=left;verticalAlign=middle;spacingLeft=4;spacingRight=4;overflow=hidden;points=[[0,0.5],[1,0.5]];portConstraint=eastwest;rotatable=0;whiteSpace=wrap;html=1;fontSize=18;" parent="C4IJJKCAS7BINVU8155Y-21" vertex="1">
          <mxGeometry y="150" width="191" height="30" as="geometry" />
        </mxCell>
        <mxCell id="C4IJJKCAS7BINVU8155Y-28" value="Сотрудники" style="swimlane;fontStyle=0;childLayout=stackLayout;horizontal=1;startSize=30;horizontalStack=0;resizeParent=1;resizeParentMax=0;resizeLast=0;collapsible=1;marginBottom=0;whiteSpace=wrap;html=1;fontSize=18;" parent="1" vertex="1">
          <mxGeometry x="-1307" y="156" width="196" height="420" as="geometry" />
        </mxCell>
        <mxCell id="C4IJJKCAS7BINVU8155Y-29" value="id_сотрудника" style="text;strokeColor=none;fillColor=none;align=left;verticalAlign=middle;spacingLeft=4;spacingRight=4;overflow=hidden;points=[[0,0.5],[1,0.5]];portConstraint=eastwest;rotatable=0;whiteSpace=wrap;html=1;fontSize=18;" parent="C4IJJKCAS7BINVU8155Y-28" vertex="1">
          <mxGeometry y="30" width="196" height="30" as="geometry" />
        </mxCell>
        <mxCell id="C4IJJKCAS7BINVU8155Y-30" value="id_должности" style="text;strokeColor=none;fillColor=none;align=left;verticalAlign=middle;spacingLeft=4;spacingRight=4;overflow=hidden;points=[[0,0.5],[1,0.5]];portConstraint=eastwest;rotatable=0;whiteSpace=wrap;html=1;fontSize=18;" parent="C4IJJKCAS7BINVU8155Y-28" vertex="1">
          <mxGeometry y="60" width="196" height="30" as="geometry" />
        </mxCell>
        <mxCell id="C4IJJKCAS7BINVU8155Y-31" value="фамилия_сотрудника" style="text;strokeColor=none;fillColor=none;align=left;verticalAlign=middle;spacingLeft=4;spacingRight=4;overflow=hidden;points=[[0,0.5],[1,0.5]];portConstraint=eastwest;rotatable=0;whiteSpace=wrap;html=1;fontSize=18;" parent="C4IJJKCAS7BINVU8155Y-28" vertex="1">
          <mxGeometry y="90" width="196" height="30" as="geometry" />
        </mxCell>
        <mxCell id="C4IJJKCAS7BINVU8155Y-32" value="имя_сотрудника" style="text;strokeColor=none;fillColor=none;align=left;verticalAlign=middle;spacingLeft=4;spacingRight=4;overflow=hidden;points=[[0,0.5],[1,0.5]];portConstraint=eastwest;rotatable=0;whiteSpace=wrap;html=1;fontSize=18;" parent="C4IJJKCAS7BINVU8155Y-28" vertex="1">
          <mxGeometry y="120" width="196" height="30" as="geometry" />
        </mxCell>
        <mxCell id="C4IJJKCAS7BINVU8155Y-33" value="отчество_сотрудника" style="text;strokeColor=none;fillColor=none;align=left;verticalAlign=middle;spacingLeft=4;spacingRight=4;overflow=hidden;points=[[0,0.5],[1,0.5]];portConstraint=eastwest;rotatable=0;whiteSpace=wrap;html=1;fontSize=18;" parent="C4IJJKCAS7BINVU8155Y-28" vertex="1">
          <mxGeometry y="150" width="196" height="30" as="geometry" />
        </mxCell>
        <mxCell id="C4IJJKCAS7BINVU8155Y-35" value="дата_рождения" style="text;strokeColor=none;fillColor=none;align=left;verticalAlign=middle;spacingLeft=4;spacingRight=4;overflow=hidden;points=[[0,0.5],[1,0.5]];portConstraint=eastwest;rotatable=0;whiteSpace=wrap;html=1;fontSize=18;" parent="C4IJJKCAS7BINVU8155Y-28" vertex="1">
          <mxGeometry y="180" width="196" height="30" as="geometry" />
        </mxCell>
        <mxCell id="C4IJJKCAS7BINVU8155Y-36" value="серия_паспорта&amp;nbsp;" style="text;strokeColor=none;fillColor=none;align=left;verticalAlign=middle;spacingLeft=4;spacingRight=4;overflow=hidden;points=[[0,0.5],[1,0.5]];portConstraint=eastwest;rotatable=0;whiteSpace=wrap;html=1;fontSize=18;" parent="C4IJJKCAS7BINVU8155Y-28" vertex="1">
          <mxGeometry y="210" width="196" height="30" as="geometry" />
        </mxCell>
        <mxCell id="C4IJJKCAS7BINVU8155Y-37" value="номер&lt;span style=&quot;color: rgba(0, 0, 0, 0); font-family: monospace; font-size: 18px; text-wrap: nowrap;&quot;&gt;%3CmxGraphModel%3E%3Croot%3E%3CmxCell%20id%3D%220%22%2F%3E%3CmxCell%20id%3D%221%22%20parent%3D%220%22%2F%3E%3CmxCell%20id%3D%222%22%20value%3D%22%D1%81%D0%B5%D1%80%D0%B8%D1%8F_%D0%BF%D0%B0%D1%81%D0%BF%D0%BE%D1%80%D1%82%D0%B0%26amp%3Bnbsp%3B%22%20style%3D%22text%3BstrokeColor%3Dnone%3BfillColor%3Dnone%3Balign%3Dleft%3BverticalAlign%3Dmiddle%3BspacingLeft%3D4%3BspacingRight%3D4%3Boverflow%3Dhidden%3Bpoints%3D%5B%5B0%2C0.5%5D%2C%5B1%2C0.5%5D%5D%3BportConstraint%3Deastwest%3Brotatable%3D0%3BwhiteSpace%3Dwrap%3Bhtml%3D1%3B%22%20vertex%3D%221%22%20parent%3D%221%22%3E%3CmxGeometry%20x%3D%22585%22%20y%3D%22564%22%20width%3D%22140%22%20height%3D%2230%22%20as%3D%22geometry%22%2F%3E%3C%2FmxCell%3E%3C%2Froot%3E%3C%2FmxGraphModel%3E&lt;/span&gt;_паспорта&amp;nbsp;" style="text;strokeColor=none;fillColor=none;align=left;verticalAlign=middle;spacingLeft=4;spacingRight=4;overflow=hidden;points=[[0,0.5],[1,0.5]];portConstraint=eastwest;rotatable=0;whiteSpace=wrap;html=1;fontSize=18;" parent="C4IJJKCAS7BINVU8155Y-28" vertex="1">
          <mxGeometry y="240" width="196" height="30" as="geometry" />
        </mxCell>
        <mxCell id="C4IJJKCAS7BINVU8155Y-38" value="почта&amp;nbsp;&lt;span style=&quot;color: rgba(0, 0, 0, 0); font-family: monospace; font-size: 18px; text-wrap: nowrap;&quot;&gt;%3CmxGraphModel%3E%3Croot%3E%3CmxCell%20id%3D%220%22%2F%3E%3CmxCell%20id%3D%221%22%20parent%3D%220%22%2F%3E%3CmxCell%20id%3D%222%22%20value%3D%22%D0%BD%D0%BE%D0%BC%D0%B5%D1%80%26lt%3Bspan%20style%3D%26quot%3Bcolor%3A%20rgba(0%2C%200%2C%200%2C%200)%3B%20font-family%3A%20monospace%3B%20font-size%3A%200px%3B%20text-wrap%3A%20nowrap%3B%26quot%3B%26gt%3B%253CmxGraphModel%253E%253Croot%253E%253CmxCell%2520id%253D%25220%2522%252F%253E%253CmxCell%2520id%253D%25221%2522%2520parent%253D%25220%2522%252F%253E%253CmxCell%2520id%253D%25222%2522%2520value%253D%2522%25D1%2581%25D0%25B5%25D1%2580%25D0%25B8%25D1%258F_%25D0%25BF%25D0%25B0%25D1%2581%25D0%25BF%25D0%25BE%25D1%2580%25D1%2582%25D0%25B0%2526amp%253Bnbsp%253B%2522%2520style%253D%2522text%253BstrokeColor%253Dnone%253BfillColor%253Dnone%253Balign%253Dleft%253BverticalAlign%253Dmiddle%253BspacingLeft%253D4%253BspacingRight%253D4%253Boverflow%253Dhidden%253Bpoints%253D%255B%255B0%252C0.5%255D%252C%255B1%252C0.5%255D%255D%253BportConstraint%253Deastwest%253Brotatable%253D0%253BwhiteSpace%253Dwrap%253Bhtml%253D1%253B%2522%2520vertex%253D%25221%2522%2520parent%253D%25221%2522%253E%253CmxGeometry%2520x%253D%2522585%2522%2520y%253D%2522564%2522%2520width%253D%2522140%2522%2520height%253D%252230%2522%2520as%253D%2522geometry%2522%252F%253E%253C%252FmxCell%253E%253C%252Froot%253E%253C%252FmxGraphModel%253E%26lt%3B%2Fspan%26gt%3B_%D0%BF%D0%B0%D1%81%D0%BF%D0%BE%D1%80%D1%82%D0%B0%26amp%3Bnbsp%3B%22%20style%3D%22text%3BstrokeColor%3Dnone%3BfillColor%3Dnone%3Balign%3Dleft%3BverticalAlign%3Dmiddle%3BspacingLeft%3D4%3BspacingRight%3D4%3Boverflow%3Dhidden%3Bpoints%3D%5B%5B0%2C0.5%5D%2C%5B1%2C0.5%5D%5D%3BportConstraint%3Deastwest%3Brotatable%3D0%3BwhiteSpace%3Dwrap%3Bhtml%3D1%3B%22%20vertex%3D%221%22%20parent%3D%221%22%3E%3CmxGeometry%20x%3D%22585%22%20y%3D%22594%22%20width%3D%22140%22%20height%3D%2230%22%20as%3D%22geometry%22%2F%3E%3C%2FmxCell%3E%3C%2Froot%3E%3C%2FmxGraphModel%3E&lt;/span&gt;" style="text;strokeColor=none;fillColor=none;align=left;verticalAlign=middle;spacingLeft=4;spacingRight=4;overflow=hidden;points=[[0,0.5],[1,0.5]];portConstraint=eastwest;rotatable=0;whiteSpace=wrap;html=1;fontSize=18;" parent="C4IJJKCAS7BINVU8155Y-28" vertex="1">
          <mxGeometry y="270" width="196" height="30" as="geometry" />
        </mxCell>
        <mxCell id="C4IJJKCAS7BINVU8155Y-39" value="телефон&lt;span style=&quot;color: rgba(0, 0, 0, 0); font-family: monospace; font-size: 18px; text-wrap: nowrap;&quot;&gt;%3CmxGraphModel%3E%3Croot%3E%3CmxCell%20id%3D%220%22%2F%3E%3CmxCell%20id%3D%221%22%20parent%3D%220%22%2F%3E%3CmxCell%20id%3D%222%22%20value%3D%22%D0%BF%D0%BE%D1%87%D1%82%D0%B0%26amp%3Bnbsp%3B%26lt%3Bspan%20style%3D%26quot%3Bcolor%3A%20rgba(0%2C%200%2C%200%2C%200)%3B%20font-family%3A%20monospace%3B%20font-size%3A%200px%3B%20text-wrap%3A%20nowrap%3B%26quot%3B%26gt%3B%253CmxGraphModel%253E%253Croot%253E%253CmxCell%2520id%253D%25220%2522%252F%253E%253CmxCell%2520id%253D%25221%2522%2520parent%253D%25220%2522%252F%253E%253CmxCell%2520id%253D%25222%2522%2520value%253D%2522%25D0%25BD%25D0%25BE%25D0%25BC%25D0%25B5%25D1%2580%2526lt%253Bspan%2520style%253D%2526quot%253Bcolor%253A%2520rgba(0%252C%25200%252C%25200%252C%25200)%253B%2520font-family%253A%2520monospace%253B%2520font-size%253A%25200px%253B%2520text-wrap%253A%2520nowrap%253B%2526quot%253B%2526gt%253B%25253CmxGraphModel%25253E%25253Croot%25253E%25253CmxCell%252520id%25253D%2525220%252522%25252F%25253E%25253CmxCell%252520id%25253D%2525221%252522%252520parent%25253D%2525220%252522%25252F%25253E%25253CmxCell%252520id%25253D%2525222%252522%252520value%25253D%252522%2525D1%252581%2525D0%2525B5%2525D1%252580%2525D0%2525B8%2525D1%25258F_%2525D0%2525BF%2525D0%2525B0%2525D1%252581%2525D0%2525BF%2525D0%2525BE%2525D1%252580%2525D1%252582%2525D0%2525B0%252526amp%25253Bnbsp%25253B%252522%252520style%25253D%252522text%25253BstrokeColor%25253Dnone%25253BfillColor%25253Dnone%25253Balign%25253Dleft%25253BverticalAlign%25253Dmiddle%25253BspacingLeft%25253D4%25253BspacingRight%25253D4%25253Boverflow%25253Dhidden%25253Bpoints%25253D%25255B%25255B0%25252C0.5%25255D%25252C%25255B1%25252C0.5%25255D%25255D%25253BportConstraint%25253Deastwest%25253Brotatable%25253D0%25253BwhiteSpace%25253Dwrap%25253Bhtml%25253D1%25253B%252522%252520vertex%25253D%2525221%252522%252520parent%25253D%2525221%252522%25253E%25253CmxGeometry%252520x%25253D%252522585%252522%252520y%25253D%252522564%252522%252520width%25253D%252522140%252522%252520height%25253D%25252230%252522%252520as%25253D%252522geometry%252522%25252F%25253E%25253C%25252FmxCell%25253E%25253C%25252Froot%25253E%25253C%25252FmxGraphModel%25253E%2526lt%253B%252Fspan%2526gt%253B_%25D0%25BF%25D0%25B0%25D1%2581%25D0%25BF%25D0%25BE%25D1%2580%25D1%2582%25D0%25B0%2526amp%253Bnbsp%253B%2522%2520style%253D%2522text%253BstrokeColor%253Dnone%253BfillColor%253Dnone%253Balign%253Dleft%253BverticalAlign%253Dmiddle%253BspacingLeft%253D4%253BspacingRight%253D4%253Boverflow%253Dhidden%253Bpoints%253D%255B%255B0%252C0.5%255D%252C%255B1%252C0.5%255D%255D%253BportConstraint%253Deastwest%253Brotatable%253D0%253BwhiteSpace%253Dwrap%253Bhtml%253D1%253B%2522%2520vertex%253D%25221%2522%2520parent%253D%25221%2522%253E%253CmxGeometry%2520x%253D%2522585%2522%2520y%253D%2522594%2522%2520width%253D%2522140%2522%2520height%253D%252230%2522%2520as%253D%2522geometry%2522%252F%253E%253C%252FmxCell%253E%253C%252Froot%253E%253C%252FmxGraphModel%253E%26lt%3B%2Fspan%26gt%3B%22%20style%3D%22text%3BstrokeColor%3Dnone%3BfillColor%3Dnone%3Balign%3Dleft%3BverticalAlign%3Dmiddle%3BspacingLeft%3D4%3BspacingRight%3D4%3Boverflow%3Dhidden%3Bpoints%3D%5B%5B0%2C0.5%5D%2C%5B1%2C0.5%5D%5D%3BportConstraint%3Deastwest%3Brotatable%3D0%3BwhiteSpace%3Dwrap%3Bhtml%3D1%3B%22%20vertex%3D%221%22%20parent%3D%221%22%3E%3CmxGeometry%20x%3D%22585%22%20y%3D%22624%22%20width%3D%22140%22%20height%3D%2230%22%20as%3D%22geometry%22%2F%3E%3C%2FmxCell%3E%3C%2Froot%3E%3C%2FmxGraphModel%3E&lt;/span&gt;" style="text;strokeColor=none;fillColor=none;align=left;verticalAlign=middle;spacingLeft=4;spacingRight=4;overflow=hidden;points=[[0,0.5],[1,0.5]];portConstraint=eastwest;rotatable=0;whiteSpace=wrap;html=1;fontSize=18;" parent="C4IJJKCAS7BINVU8155Y-28" vertex="1">
          <mxGeometry y="300" width="196" height="30" as="geometry" />
        </mxCell>
        <mxCell id="C4IJJKCAS7BINVU8155Y-40" value="логин" style="text;strokeColor=none;fillColor=none;align=left;verticalAlign=middle;spacingLeft=4;spacingRight=4;overflow=hidden;points=[[0,0.5],[1,0.5]];portConstraint=eastwest;rotatable=0;whiteSpace=wrap;html=1;fontSize=18;" parent="C4IJJKCAS7BINVU8155Y-28" vertex="1">
          <mxGeometry y="330" width="196" height="30" as="geometry" />
        </mxCell>
        <mxCell id="C4IJJKCAS7BINVU8155Y-41" value="пароль" style="text;strokeColor=none;fillColor=none;align=left;verticalAlign=middle;spacingLeft=4;spacingRight=4;overflow=hidden;points=[[0,0.5],[1,0.5]];portConstraint=eastwest;rotatable=0;whiteSpace=wrap;html=1;fontSize=18;" parent="C4IJJKCAS7BINVU8155Y-28" vertex="1">
          <mxGeometry y="360" width="196" height="30" as="geometry" />
        </mxCell>
        <mxCell id="C4IJJKCAS7BINVU8155Y-42" value="образование&amp;nbsp;" style="text;strokeColor=none;fillColor=none;align=left;verticalAlign=middle;spacingLeft=4;spacingRight=4;overflow=hidden;points=[[0,0.5],[1,0.5]];portConstraint=eastwest;rotatable=0;whiteSpace=wrap;html=1;fontSize=18;" parent="C4IJJKCAS7BINVU8155Y-28" vertex="1">
          <mxGeometry y="390" width="196" height="30" as="geometry" />
        </mxCell>
        <mxCell id="C4IJJKCAS7BINVU8155Y-43" value="Тех. обслуживание&amp;nbsp;" style="swimlane;fontStyle=0;childLayout=stackLayout;horizontal=1;startSize=55;horizontalStack=0;resizeParent=1;resizeParentMax=0;resizeLast=0;collapsible=1;marginBottom=0;whiteSpace=wrap;html=1;fontSize=18;" parent="1" vertex="1">
          <mxGeometry x="-1076" y="467" width="140" height="205" as="geometry" />
        </mxCell>
        <mxCell id="C4IJJKCAS7BINVU8155Y-44" value="id_обслуживания" style="text;strokeColor=none;fillColor=none;align=left;verticalAlign=middle;spacingLeft=4;spacingRight=4;overflow=hidden;points=[[0,0.5],[1,0.5]];portConstraint=eastwest;rotatable=0;whiteSpace=wrap;html=1;fontSize=18;" parent="C4IJJKCAS7BINVU8155Y-43" vertex="1">
          <mxGeometry y="55" width="140" height="30" as="geometry" />
        </mxCell>
        <mxCell id="C4IJJKCAS7BINVU8155Y-45" value="id_авто" style="text;strokeColor=none;fillColor=none;align=left;verticalAlign=middle;spacingLeft=4;spacingRight=4;overflow=hidden;points=[[0,0.5],[1,0.5]];portConstraint=eastwest;rotatable=0;whiteSpace=wrap;html=1;fontSize=18;" parent="C4IJJKCAS7BINVU8155Y-43" vertex="1">
          <mxGeometry y="85" width="140" height="30" as="geometry" />
        </mxCell>
        <mxCell id="C4IJJKCAS7BINVU8155Y-46" value="дата_и_время" style="text;strokeColor=none;fillColor=none;align=left;verticalAlign=middle;spacingLeft=4;spacingRight=4;overflow=hidden;points=[[0,0.5],[1,0.5]];portConstraint=eastwest;rotatable=0;whiteSpace=wrap;html=1;fontSize=18;" parent="C4IJJKCAS7BINVU8155Y-43" vertex="1">
          <mxGeometry y="115" width="140" height="30" as="geometry" />
        </mxCell>
        <mxCell id="C4IJJKCAS7BINVU8155Y-47" value="id_сотрудника" style="text;strokeColor=none;fillColor=none;align=left;verticalAlign=middle;spacingLeft=4;spacingRight=4;overflow=hidden;points=[[0,0.5],[1,0.5]];portConstraint=eastwest;rotatable=0;whiteSpace=wrap;html=1;fontSize=18;" parent="C4IJJKCAS7BINVU8155Y-43" vertex="1">
          <mxGeometry y="145" width="140" height="30" as="geometry" />
        </mxCell>
        <mxCell id="C4IJJKCAS7BINVU8155Y-48" value="id_услуги" style="text;strokeColor=none;fillColor=none;align=left;verticalAlign=middle;spacingLeft=4;spacingRight=4;overflow=hidden;points=[[0,0.5],[1,0.5]];portConstraint=eastwest;rotatable=0;whiteSpace=wrap;html=1;fontSize=18;" parent="C4IJJKCAS7BINVU8155Y-43" vertex="1">
          <mxGeometry y="175" width="140" height="30" as="geometry" />
        </mxCell>
        <mxCell id="C4IJJKCAS7BINVU8155Y-50" value="Услуги" style="swimlane;fontStyle=0;childLayout=stackLayout;horizontal=1;startSize=30;horizontalStack=0;resizeParent=1;resizeParentMax=0;resizeLast=0;collapsible=1;marginBottom=0;whiteSpace=wrap;html=1;fontSize=18;" parent="1" vertex="1">
          <mxGeometry x="-1454" y="612" width="170" height="150" as="geometry" />
        </mxCell>
        <mxCell id="C4IJJKCAS7BINVU8155Y-51" value="id_услуги" style="text;strokeColor=none;fillColor=none;align=left;verticalAlign=middle;spacingLeft=4;spacingRight=4;overflow=hidden;points=[[0,0.5],[1,0.5]];portConstraint=eastwest;rotatable=0;whiteSpace=wrap;html=1;fontSize=18;" parent="C4IJJKCAS7BINVU8155Y-50" vertex="1">
          <mxGeometry y="30" width="170" height="30" as="geometry" />
        </mxCell>
        <mxCell id="C4IJJKCAS7BINVU8155Y-52" value="название_услуги" style="text;strokeColor=none;fillColor=none;align=left;verticalAlign=middle;spacingLeft=4;spacingRight=4;overflow=hidden;points=[[0,0.5],[1,0.5]];portConstraint=eastwest;rotatable=0;whiteSpace=wrap;html=1;fontSize=18;" parent="C4IJJKCAS7BINVU8155Y-50" vertex="1">
          <mxGeometry y="60" width="170" height="30" as="geometry" />
        </mxCell>
        <mxCell id="C4IJJKCAS7BINVU8155Y-53" value="цена_услуги" style="text;strokeColor=none;fillColor=none;align=left;verticalAlign=middle;spacingLeft=4;spacingRight=4;overflow=hidden;points=[[0,0.5],[1,0.5]];portConstraint=eastwest;rotatable=0;whiteSpace=wrap;html=1;fontSize=18;" parent="C4IJJKCAS7BINVU8155Y-50" vertex="1">
          <mxGeometry y="90" width="170" height="30" as="geometry" />
        </mxCell>
        <mxCell id="C4IJJKCAS7BINVU8155Y-54" value="срок_выполнения" style="text;strokeColor=none;fillColor=none;align=left;verticalAlign=middle;spacingLeft=4;spacingRight=4;overflow=hidden;points=[[0,0.5],[1,0.5]];portConstraint=eastwest;rotatable=0;whiteSpace=wrap;html=1;fontSize=18;" parent="C4IJJKCAS7BINVU8155Y-50" vertex="1">
          <mxGeometry y="120" width="170" height="30" as="geometry" />
        </mxCell>
        <mxCell id="C4IJJKCAS7BINVU8155Y-57" value="Клиенты" style="swimlane;fontStyle=0;childLayout=stackLayout;horizontal=1;startSize=30;horizontalStack=0;resizeParent=1;resizeParentMax=0;resizeLast=0;collapsible=1;marginBottom=0;whiteSpace=wrap;html=1;fontSize=18;" parent="1" vertex="1">
          <mxGeometry x="-192" y="113" width="172" height="390" as="geometry" />
        </mxCell>
        <mxCell id="C4IJJKCAS7BINVU8155Y-58" value="id_клиента" style="text;strokeColor=none;fillColor=none;align=left;verticalAlign=middle;spacingLeft=4;spacingRight=4;overflow=hidden;points=[[0,0.5],[1,0.5]];portConstraint=eastwest;rotatable=0;whiteSpace=wrap;html=1;fontSize=18;" parent="C4IJJKCAS7BINVU8155Y-57" vertex="1">
          <mxGeometry y="30" width="172" height="30" as="geometry" />
        </mxCell>
        <mxCell id="C4IJJKCAS7BINVU8155Y-60" value="фамилия_клиента" style="text;strokeColor=none;fillColor=none;align=left;verticalAlign=middle;spacingLeft=4;spacingRight=4;overflow=hidden;points=[[0,0.5],[1,0.5]];portConstraint=eastwest;rotatable=0;whiteSpace=wrap;html=1;fontSize=18;" parent="C4IJJKCAS7BINVU8155Y-57" vertex="1">
          <mxGeometry y="60" width="172" height="30" as="geometry" />
        </mxCell>
        <mxCell id="C4IJJKCAS7BINVU8155Y-61" value="имя_клиента" style="text;strokeColor=none;fillColor=none;align=left;verticalAlign=middle;spacingLeft=4;spacingRight=4;overflow=hidden;points=[[0,0.5],[1,0.5]];portConstraint=eastwest;rotatable=0;whiteSpace=wrap;html=1;fontSize=18;" parent="C4IJJKCAS7BINVU8155Y-57" vertex="1">
          <mxGeometry y="90" width="172" height="30" as="geometry" />
        </mxCell>
        <mxCell id="C4IJJKCAS7BINVU8155Y-62" value="отчество_клиента" style="text;strokeColor=none;fillColor=none;align=left;verticalAlign=middle;spacingLeft=4;spacingRight=4;overflow=hidden;points=[[0,0.5],[1,0.5]];portConstraint=eastwest;rotatable=0;whiteSpace=wrap;html=1;fontSize=18;" parent="C4IJJKCAS7BINVU8155Y-57" vertex="1">
          <mxGeometry y="120" width="172" height="30" as="geometry" />
        </mxCell>
        <mxCell id="C4IJJKCAS7BINVU8155Y-66" value="почта_клиента&lt;span style=&quot;color: rgba(0, 0, 0, 0); font-family: monospace; font-size: 18px; text-wrap: nowrap;&quot;&gt;%3CmxGraphModel%3E%3Croot%3E%3CmxCell%20id%3D%220%22%2F%3E%3CmxCell%20id%3D%221%22%20parent%3D%220%22%2F%3E%3CmxCell%20id%3D%222%22%20value%3D%22%D0%BD%D0%BE%D0%BC%D0%B5%D1%80%26lt%3Bspan%20style%3D%26quot%3Bcolor%3A%20rgba(0%2C%200%2C%200%2C%200)%3B%20font-family%3A%20monospace%3B%20font-size%3A%200px%3B%20text-wrap%3A%20nowrap%3B%26quot%3B%26gt%3B%253CmxGraphModel%253E%253Croot%253E%253CmxCell%2520id%253D%25220%2522%252F%253E%253CmxCell%2520id%253D%25221%2522%2520parent%253D%25220%2522%252F%253E%253CmxCell%2520id%253D%25222%2522%2520value%253D%2522%25D1%2581%25D0%25B5%25D1%2580%25D0%25B8%25D1%258F_%25D0%25BF%25D0%25B0%25D1%2581%25D0%25BF%25D0%25BE%25D1%2580%25D1%2582%25D0%25B0%2526amp%253Bnbsp%253B%2522%2520style%253D%2522text%253BstrokeColor%253Dnone%253BfillColor%253Dnone%253Balign%253Dleft%253BverticalAlign%253Dmiddle%253BspacingLeft%253D4%253BspacingRight%253D4%253Boverflow%253Dhidden%253Bpoints%253D%255B%255B0%252C0.5%255D%252C%255B1%252C0.5%255D%255D%253BportConstraint%253Deastwest%253Brotatable%253D0%253BwhiteSpace%253Dwrap%253Bhtml%253D1%253B%2522%2520vertex%253D%25221%2522%2520parent%253D%25221%2522%253E%253CmxGeometry%2520x%253D%2522585%2522%2520y%253D%2522564%2522%2520width%253D%2522140%2522%2520height%253D%252230%2522%2520as%253D%2522geometry%2522%252F%253E%253C%252FmxCell%253E%253C%252Froot%253E%253C%252FmxGraphModel%253E%26lt%3B%2Fspan%26gt%3B_%D0%BF%D0%B0%D1%81%D0%BF%D0%BE%D1%80%D1%82%D0%B0%26amp%3Bnbsp%3B%22%20style%3D%22text%3BstrokeColor%3Dnone%3BfillColor%3Dnone%3Balign%3Dleft%3BverticalAlign%3Dmiddle%3BspacingLeft%3D4%3BspacingRight%3D4%3Boverflow%3Dhidden%3Bpoints%3D%5B%5B0%2C0.5%5D%2C%5B1%2C0.5%5D%5D%3BportConstraint%3Deastwest%3Brotatable%3D0%3BwhiteSpace%3Dwrap%3Bhtml%3D1%3B%22%20vertex%3D%221%22%20parent%3D%221%22%3E%3CmxGeometry%20x%3D%22585%22%20y%3D%22594%22%20width%3D%22140%22%20height%3D%2230%22%20as%3D%22geometry%22%2F%3E%3C%2FmxCell%3E%3C%2Froot%3E%3C%2FmxGraphModel%3E&lt;/span&gt;" style="text;strokeColor=none;fillColor=none;align=left;verticalAlign=middle;spacingLeft=4;spacingRight=4;overflow=hidden;points=[[0,0.5],[1,0.5]];portConstraint=eastwest;rotatable=0;whiteSpace=wrap;html=1;fontSize=18;" parent="C4IJJKCAS7BINVU8155Y-57" vertex="1">
          <mxGeometry y="150" width="172" height="30" as="geometry" />
        </mxCell>
        <mxCell id="C4IJJKCAS7BINVU8155Y-67" value="телефон_клиента&lt;span style=&quot;color: rgba(0, 0, 0, 0); font-family: monospace; font-size: 18px; text-wrap: nowrap;&quot;&gt;%3CmxGraphModel%3E%3Croot%3E%3CmxCell%20id%3D%220%22%2F%3E%3CmxCell%20id%3D%221%22%20parent%3D%220%22%2F%3E%3CmxCell%20id%3D%222%22%20value%3D%22%D0%BF%D0%BE%D1%87%D1%82%D0%B0%26amp%3Bnbsp%3B%26lt%3Bspan%20style%3D%26quot%3Bcolor%3A%20rgba(0%2C%200%2C%200%2C%200)%3B%20font-family%3A%20monospace%3B%20font-size%3A%200px%3B%20text-wrap%3A%20nowrap%3B%26quot%3B%26gt%3B%253CmxGraphModel%253E%253Croot%253E%253CmxCell%2520id%253D%25220%2522%252F%253E%253CmxCell%2520id%253D%25221%2522%2520parent%253D%25220%2522%252F%253E%253CmxCell%2520id%253D%25222%2522%2520value%253D%2522%25D0%25BD%25D0%25BE%25D0%25BC%25D0%25B5%25D1%2580%2526lt%253Bspan%2520style%253D%2526quot%253Bcolor%253A%2520rgba(0%252C%25200%252C%25200%252C%25200)%253B%2520font-family%253A%2520monospace%253B%2520font-size%253A%25200px%253B%2520text-wrap%253A%2520nowrap%253B%2526quot%253B%2526gt%253B%25253CmxGraphModel%25253E%25253Croot%25253E%25253CmxCell%252520id%25253D%2525220%252522%25252F%25253E%25253CmxCell%252520id%25253D%2525221%252522%252520parent%25253D%2525220%252522%25252F%25253E%25253CmxCell%252520id%25253D%2525222%252522%252520value%25253D%252522%2525D1%252581%2525D0%2525B5%2525D1%252580%2525D0%2525B8%2525D1%25258F_%2525D0%2525BF%2525D0%2525B0%2525D1%252581%2525D0%2525BF%2525D0%2525BE%2525D1%252580%2525D1%252582%2525D0%2525B0%252526amp%25253Bnbsp%25253B%252522%252520style%25253D%252522text%25253BstrokeColor%25253Dnone%25253BfillColor%25253Dnone%25253Balign%25253Dleft%25253BverticalAlign%25253Dmiddle%25253BspacingLeft%25253D4%25253BspacingRight%25253D4%25253Boverflow%25253Dhidden%25253Bpoints%25253D%25255B%25255B0%25252C0.5%25255D%25252C%25255B1%25252C0.5%25255D%25255D%25253BportConstraint%25253Deastwest%25253Brotatable%25253D0%25253BwhiteSpace%25253Dwrap%25253Bhtml%25253D1%25253B%252522%252520vertex%25253D%2525221%252522%252520parent%25253D%2525221%252522%25253E%25253CmxGeometry%252520x%25253D%252522585%252522%252520y%25253D%252522564%252522%252520width%25253D%252522140%252522%252520height%25253D%25252230%252522%252520as%25253D%252522geometry%252522%25252F%25253E%25253C%25252FmxCell%25253E%25253C%25252Froot%25253E%25253C%25252FmxGraphModel%25253E%2526lt%253B%252Fspan%2526gt%253B_%25D0%25BF%25D0%25B0%25D1%2581%25D0%25BF%25D0%25BE%25D1%2580%25D1%2582%25D0%25B0%2526amp%253Bnbsp%253B%2522%2520style%253D%2522text%253BstrokeColor%253Dnone%253BfillColor%253Dnone%253Balign%253Dleft%253BverticalAlign%253Dmiddle%253BspacingLeft%253D4%253BspacingRight%253D4%253Boverflow%253Dhidden%253Bpoints%253D%255B%255B0%252C0.5%255D%252C%255B1%252C0.5%255D%255D%253BportConstraint%253Deastwest%253Brotatable%253D0%253BwhiteSpace%253Dwrap%253Bhtml%253D1%253B%2522%2520vertex%253D%25221%2522%2520parent%253D%25221%2522%253E%253CmxGeometry%2520x%253D%2522585%2522%2520y%253D%2522594%2522%2520width%253D%2522140%2522%2520height%253D%252230%2522%2520as%253D%2522geometry%2522%252F%253E%253C%252FmxCell%253E%253C%252Froot%253E%253C%252FmxGraphModel%253E%26lt%3B%2Fspan%26gt%3B%22%20style%3D%22text%3BstrokeColor%3Dnone%3BfillColor%3Dnone%3Balign%3Dleft%3BverticalAlign%3Dmiddle%3BspacingLeft%3D4%3BspacingRight%3D4%3Boverflow%3Dhidden%3Bpoints%3D%5B%5B0%2C0.5%5D%2C%5B1%2C0.5%5D%5D%3BportConstraint%3Deastwest%3Brotatable%3D0%3BwhiteSpace%3Dwrap%3Bhtml%3D1%3B%22%20vertex%3D%221%22%20parent%3D%221%22%3E%3CmxGeometry%20x%3D%22585%22%20y%3D%22624%22%20width%3D%22140%22%20height%3D%2230%22%20as%3D%22geometry%22%2F%3E%3C%2FmxCell%3E%3C%2Froot%3E%3C%2FmxGraphModel%3E&lt;/span&gt;" style="text;strokeColor=none;fillColor=none;align=left;verticalAlign=middle;spacingLeft=4;spacingRight=4;overflow=hidden;points=[[0,0.5],[1,0.5]];portConstraint=eastwest;rotatable=0;whiteSpace=wrap;html=1;fontSize=18;" parent="C4IJJKCAS7BINVU8155Y-57" vertex="1">
          <mxGeometry y="180" width="172" height="30" as="geometry" />
        </mxCell>
        <mxCell id="C4IJJKCAS7BINVU8155Y-64" value="серия_паспорта&amp;nbsp;" style="text;strokeColor=none;fillColor=none;align=left;verticalAlign=middle;spacingLeft=4;spacingRight=4;overflow=hidden;points=[[0,0.5],[1,0.5]];portConstraint=eastwest;rotatable=0;whiteSpace=wrap;html=1;fontSize=18;" parent="C4IJJKCAS7BINVU8155Y-57" vertex="1">
          <mxGeometry y="210" width="172" height="30" as="geometry" />
        </mxCell>
        <mxCell id="C4IJJKCAS7BINVU8155Y-65" value="номер&lt;span style=&quot;color: rgba(0, 0, 0, 0); font-family: monospace; font-size: 18px; text-wrap: nowrap;&quot;&gt;%3CmxGraphModel%3E%3Croot%3E%3CmxCell%20id%3D%220%22%2F%3E%3CmxCell%20id%3D%221%22%20parent%3D%220%22%2F%3E%3CmxCell%20id%3D%222%22%20value%3D%22%D1%81%D0%B5%D1%80%D0%B8%D1%8F_%D0%BF%D0%B0%D1%81%D0%BF%D0%BE%D1%80%D1%82%D0%B0%26amp%3Bnbsp%3B%22%20style%3D%22text%3BstrokeColor%3Dnone%3BfillColor%3Dnone%3Balign%3Dleft%3BverticalAlign%3Dmiddle%3BspacingLeft%3D4%3BspacingRight%3D4%3Boverflow%3Dhidden%3Bpoints%3D%5B%5B0%2C0.5%5D%2C%5B1%2C0.5%5D%5D%3BportConstraint%3Deastwest%3Brotatable%3D0%3BwhiteSpace%3Dwrap%3Bhtml%3D1%3B%22%20vertex%3D%221%22%20parent%3D%221%22%3E%3CmxGeometry%20x%3D%22585%22%20y%3D%22564%22%20width%3D%22140%22%20height%3D%2230%22%20as%3D%22geometry%22%2F%3E%3C%2FmxCell%3E%3C%2Froot%3E%3C%2FmxGraphModel%3E&lt;/span&gt;_паспорта&amp;nbsp;" style="text;strokeColor=none;fillColor=none;align=left;verticalAlign=middle;spacingLeft=4;spacingRight=4;overflow=hidden;points=[[0,0.5],[1,0.5]];portConstraint=eastwest;rotatable=0;whiteSpace=wrap;html=1;fontSize=18;" parent="C4IJJKCAS7BINVU8155Y-57" vertex="1">
          <mxGeometry y="240" width="172" height="30" as="geometry" />
        </mxCell>
        <mxCell id="C4IJJKCAS7BINVU8155Y-63" value="дата_выдачи" style="text;strokeColor=none;fillColor=none;align=left;verticalAlign=middle;spacingLeft=4;spacingRight=4;overflow=hidden;points=[[0,0.5],[1,0.5]];portConstraint=eastwest;rotatable=0;whiteSpace=wrap;html=1;fontSize=18;" parent="C4IJJKCAS7BINVU8155Y-57" vertex="1">
          <mxGeometry y="270" width="172" height="30" as="geometry" />
        </mxCell>
        <mxCell id="C4IJJKCAS7BINVU8155Y-68" value="кем_выдан" style="text;strokeColor=none;fillColor=none;align=left;verticalAlign=middle;spacingLeft=4;spacingRight=4;overflow=hidden;points=[[0,0.5],[1,0.5]];portConstraint=eastwest;rotatable=0;whiteSpace=wrap;html=1;fontSize=18;" parent="C4IJJKCAS7BINVU8155Y-57" vertex="1">
          <mxGeometry y="300" width="172" height="30" as="geometry" />
        </mxCell>
        <mxCell id="C4IJJKCAS7BINVU8155Y-69" value="адрес_прописки&amp;nbsp;" style="text;strokeColor=none;fillColor=none;align=left;verticalAlign=middle;spacingLeft=4;spacingRight=4;overflow=hidden;points=[[0,0.5],[1,0.5]];portConstraint=eastwest;rotatable=0;whiteSpace=wrap;html=1;fontSize=18;" parent="C4IJJKCAS7BINVU8155Y-57" vertex="1">
          <mxGeometry y="330" width="172" height="30" as="geometry" />
        </mxCell>
        <mxCell id="C4IJJKCAS7BINVU8155Y-70" value="адрес_проживания" style="text;strokeColor=none;fillColor=none;align=left;verticalAlign=middle;spacingLeft=4;spacingRight=4;overflow=hidden;points=[[0,0.5],[1,0.5]];portConstraint=eastwest;rotatable=0;whiteSpace=wrap;html=1;fontSize=18;" parent="C4IJJKCAS7BINVU8155Y-57" vertex="1">
          <mxGeometry y="360" width="172" height="30" as="geometry" />
        </mxCell>
        <mxCell id="C4IJJKCAS7BINVU8155Y-71" value="Договор продажи&amp;nbsp;" style="swimlane;fontStyle=0;childLayout=stackLayout;horizontal=1;startSize=53;horizontalStack=0;resizeParent=1;resizeParentMax=0;resizeLast=0;collapsible=1;marginBottom=0;whiteSpace=wrap;html=1;fontSize=18;" parent="1" vertex="1">
          <mxGeometry x="-546" y="442" width="140" height="263" as="geometry" />
        </mxCell>
        <mxCell id="C4IJJKCAS7BINVU8155Y-72" value="id_договора&amp;nbsp;" style="text;strokeColor=none;fillColor=none;align=left;verticalAlign=middle;spacingLeft=4;spacingRight=4;overflow=hidden;points=[[0,0.5],[1,0.5]];portConstraint=eastwest;rotatable=0;whiteSpace=wrap;html=1;fontSize=18;" parent="C4IJJKCAS7BINVU8155Y-71" vertex="1">
          <mxGeometry y="53" width="140" height="30" as="geometry" />
        </mxCell>
        <mxCell id="C4IJJKCAS7BINVU8155Y-73" value="id_авто" style="text;strokeColor=none;fillColor=none;align=left;verticalAlign=middle;spacingLeft=4;spacingRight=4;overflow=hidden;points=[[0,0.5],[1,0.5]];portConstraint=eastwest;rotatable=0;whiteSpace=wrap;html=1;fontSize=18;" parent="C4IJJKCAS7BINVU8155Y-71" vertex="1">
          <mxGeometry y="83" width="140" height="30" as="geometry" />
        </mxCell>
        <mxCell id="C4IJJKCAS7BINVU8155Y-74" value="id_клиента" style="text;strokeColor=none;fillColor=none;align=left;verticalAlign=middle;spacingLeft=4;spacingRight=4;overflow=hidden;points=[[0,0.5],[1,0.5]];portConstraint=eastwest;rotatable=0;whiteSpace=wrap;html=1;fontSize=18;" parent="C4IJJKCAS7BINVU8155Y-71" vertex="1">
          <mxGeometry y="113" width="140" height="30" as="geometry" />
        </mxCell>
        <mxCell id="C4IJJKCAS7BINVU8155Y-79" value="id_тип_оплаты" style="text;strokeColor=none;fillColor=none;align=left;verticalAlign=middle;spacingLeft=4;spacingRight=4;overflow=hidden;points=[[0,0.5],[1,0.5]];portConstraint=eastwest;rotatable=0;whiteSpace=wrap;html=1;fontSize=18;" parent="C4IJJKCAS7BINVU8155Y-71" vertex="1">
          <mxGeometry y="143" width="140" height="30" as="geometry" />
        </mxCell>
        <mxCell id="C4IJJKCAS7BINVU8155Y-75" value="статус" style="text;strokeColor=none;fillColor=none;align=left;verticalAlign=middle;spacingLeft=4;spacingRight=4;overflow=hidden;points=[[0,0.5],[1,0.5]];portConstraint=eastwest;rotatable=0;whiteSpace=wrap;html=1;fontSize=18;" parent="C4IJJKCAS7BINVU8155Y-71" vertex="1">
          <mxGeometry y="173" width="140" height="30" as="geometry" />
        </mxCell>
        <mxCell id="C4IJJKCAS7BINVU8155Y-76" value="дата_и_время" style="text;strokeColor=none;fillColor=none;align=left;verticalAlign=middle;spacingLeft=4;spacingRight=4;overflow=hidden;points=[[0,0.5],[1,0.5]];portConstraint=eastwest;rotatable=0;whiteSpace=wrap;html=1;fontSize=18;" parent="C4IJJKCAS7BINVU8155Y-71" vertex="1">
          <mxGeometry y="203" width="140" height="30" as="geometry" />
        </mxCell>
        <mxCell id="C4IJJKCAS7BINVU8155Y-77" value="id_сотрудника" style="text;strokeColor=none;fillColor=none;align=left;verticalAlign=middle;spacingLeft=4;spacingRight=4;overflow=hidden;points=[[0,0.5],[1,0.5]];portConstraint=eastwest;rotatable=0;whiteSpace=wrap;html=1;fontSize=18;" parent="C4IJJKCAS7BINVU8155Y-71" vertex="1">
          <mxGeometry y="233" width="140" height="30" as="geometry" />
        </mxCell>
        <mxCell id="C4IJJKCAS7BINVU8155Y-82" value="Тест-драйв" style="swimlane;fontStyle=0;childLayout=stackLayout;horizontal=1;startSize=30;horizontalStack=0;resizeParent=1;resizeParentMax=0;resizeLast=0;collapsible=1;marginBottom=0;whiteSpace=wrap;html=1;fontSize=18;" parent="1" vertex="1">
          <mxGeometry x="-775" y="272" width="140" height="180" as="geometry" />
        </mxCell>
        <mxCell id="C4IJJKCAS7BINVU8155Y-83" value="id_теста" style="text;strokeColor=none;fillColor=none;align=left;verticalAlign=middle;spacingLeft=4;spacingRight=4;overflow=hidden;points=[[0,0.5],[1,0.5]];portConstraint=eastwest;rotatable=0;whiteSpace=wrap;html=1;fontSize=18;" parent="C4IJJKCAS7BINVU8155Y-82" vertex="1">
          <mxGeometry y="30" width="140" height="30" as="geometry" />
        </mxCell>
        <mxCell id="C4IJJKCAS7BINVU8155Y-84" value="дата_и_время" style="text;strokeColor=none;fillColor=none;align=left;verticalAlign=middle;spacingLeft=4;spacingRight=4;overflow=hidden;points=[[0,0.5],[1,0.5]];portConstraint=eastwest;rotatable=0;whiteSpace=wrap;html=1;fontSize=18;" parent="C4IJJKCAS7BINVU8155Y-82" vertex="1">
          <mxGeometry y="60" width="140" height="30" as="geometry" />
        </mxCell>
        <mxCell id="C4IJJKCAS7BINVU8155Y-86" value="id_авто" style="text;strokeColor=none;fillColor=none;align=left;verticalAlign=middle;spacingLeft=4;spacingRight=4;overflow=hidden;points=[[0,0.5],[1,0.5]];portConstraint=eastwest;rotatable=0;whiteSpace=wrap;html=1;fontSize=18;" parent="C4IJJKCAS7BINVU8155Y-82" vertex="1">
          <mxGeometry y="90" width="140" height="30" as="geometry" />
        </mxCell>
        <mxCell id="C4IJJKCAS7BINVU8155Y-87" value="статус" style="text;strokeColor=none;fillColor=none;align=left;verticalAlign=middle;spacingLeft=4;spacingRight=4;overflow=hidden;points=[[0,0.5],[1,0.5]];portConstraint=eastwest;rotatable=0;whiteSpace=wrap;html=1;fontSize=18;" parent="C4IJJKCAS7BINVU8155Y-82" vertex="1">
          <mxGeometry y="120" width="140" height="30" as="geometry" />
        </mxCell>
        <mxCell id="C4IJJKCAS7BINVU8155Y-85" value="id_клиента" style="text;strokeColor=none;fillColor=none;align=left;verticalAlign=middle;spacingLeft=4;spacingRight=4;overflow=hidden;points=[[0,0.5],[1,0.5]];portConstraint=eastwest;rotatable=0;whiteSpace=wrap;html=1;fontSize=18;" parent="C4IJJKCAS7BINVU8155Y-82" vertex="1">
          <mxGeometry y="150" width="140" height="30" as="geometry" />
        </mxCell>
        <mxCell id="C4IJJKCAS7BINVU8155Y-90" value="Тип оплаты&amp;nbsp;" style="swimlane;fontStyle=0;childLayout=stackLayout;horizontal=1;startSize=30;horizontalStack=0;resizeParent=1;resizeParentMax=0;resizeLast=0;collapsible=1;marginBottom=0;whiteSpace=wrap;html=1;fontSize=18;" parent="1" vertex="1">
          <mxGeometry x="-255" y="555" width="140" height="90" as="geometry" />
        </mxCell>
        <mxCell id="C4IJJKCAS7BINVU8155Y-91" value="id_оплаты&amp;nbsp;" style="text;strokeColor=none;fillColor=none;align=left;verticalAlign=middle;spacingLeft=4;spacingRight=4;overflow=hidden;points=[[0,0.5],[1,0.5]];portConstraint=eastwest;rotatable=0;whiteSpace=wrap;html=1;fontSize=18;" parent="C4IJJKCAS7BINVU8155Y-90" vertex="1">
          <mxGeometry y="30" width="140" height="30" as="geometry" />
        </mxCell>
        <mxCell id="C4IJJKCAS7BINVU8155Y-92" value="название" style="text;strokeColor=none;fillColor=none;align=left;verticalAlign=middle;spacingLeft=4;spacingRight=4;overflow=hidden;points=[[0,0.5],[1,0.5]];portConstraint=eastwest;rotatable=0;whiteSpace=wrap;html=1;fontSize=18;" parent="C4IJJKCAS7BINVU8155Y-90" vertex="1">
          <mxGeometry y="60" width="140" height="30" as="geometry" />
        </mxCell>
        <mxCell id="C4IJJKCAS7BINVU8155Y-100" value="Авто" style="swimlane;fontStyle=0;childLayout=stackLayout;horizontal=1;startSize=30;horizontalStack=0;resizeParent=1;resizeParentMax=0;resizeLast=0;collapsible=1;marginBottom=0;whiteSpace=wrap;html=1;fontSize=18;" parent="1" vertex="1">
          <mxGeometry x="-865" y="482" width="153" height="420" as="geometry" />
        </mxCell>
        <mxCell id="C4IJJKCAS7BINVU8155Y-101" value="id_авто" style="text;strokeColor=none;fillColor=none;align=left;verticalAlign=middle;spacingLeft=4;spacingRight=4;overflow=hidden;points=[[0,0.5],[1,0.5]];portConstraint=eastwest;rotatable=0;whiteSpace=wrap;html=1;fontSize=18;" parent="C4IJJKCAS7BINVU8155Y-100" vertex="1">
          <mxGeometry y="30" width="153" height="30" as="geometry" />
        </mxCell>
        <mxCell id="C4IJJKCAS7BINVU8155Y-102" value="id_марка" style="text;strokeColor=none;fillColor=none;align=left;verticalAlign=middle;spacingLeft=4;spacingRight=4;overflow=hidden;points=[[0,0.5],[1,0.5]];portConstraint=eastwest;rotatable=0;whiteSpace=wrap;html=1;fontSize=18;" parent="C4IJJKCAS7BINVU8155Y-100" vertex="1">
          <mxGeometry y="60" width="153" height="30" as="geometry" />
        </mxCell>
        <mxCell id="C4IJJKCAS7BINVU8155Y-103" value="id_модель" style="text;strokeColor=none;fillColor=none;align=left;verticalAlign=middle;spacingLeft=4;spacingRight=4;overflow=hidden;points=[[0,0.5],[1,0.5]];portConstraint=eastwest;rotatable=0;whiteSpace=wrap;html=1;fontSize=18;" parent="C4IJJKCAS7BINVU8155Y-100" vertex="1">
          <mxGeometry y="90" width="153" height="30" as="geometry" />
        </mxCell>
        <mxCell id="C4IJJKCAS7BINVU8155Y-105" value="цвет" style="text;strokeColor=none;fillColor=none;align=left;verticalAlign=middle;spacingLeft=4;spacingRight=4;overflow=hidden;points=[[0,0.5],[1,0.5]];portConstraint=eastwest;rotatable=0;whiteSpace=wrap;html=1;fontSize=18;" parent="C4IJJKCAS7BINVU8155Y-100" vertex="1">
          <mxGeometry y="120" width="153" height="30" as="geometry" />
        </mxCell>
        <mxCell id="C4IJJKCAS7BINVU8155Y-106" value="цена" style="text;strokeColor=none;fillColor=none;align=left;verticalAlign=middle;spacingLeft=4;spacingRight=4;overflow=hidden;points=[[0,0.5],[1,0.5]];portConstraint=eastwest;rotatable=0;whiteSpace=wrap;html=1;fontSize=18;" parent="C4IJJKCAS7BINVU8155Y-100" vertex="1">
          <mxGeometry y="150" width="153" height="30" as="geometry" />
        </mxCell>
        <mxCell id="C4IJJKCAS7BINVU8155Y-107" value="количество_мест&amp;nbsp;" style="text;strokeColor=none;fillColor=none;align=left;verticalAlign=middle;spacingLeft=4;spacingRight=4;overflow=hidden;points=[[0,0.5],[1,0.5]];portConstraint=eastwest;rotatable=0;whiteSpace=wrap;html=1;fontSize=18;" parent="C4IJJKCAS7BINVU8155Y-100" vertex="1">
          <mxGeometry y="180" width="153" height="30" as="geometry" />
        </mxCell>
        <mxCell id="C4IJJKCAS7BINVU8155Y-108" value="длина" style="text;strokeColor=none;fillColor=none;align=left;verticalAlign=middle;spacingLeft=4;spacingRight=4;overflow=hidden;points=[[0,0.5],[1,0.5]];portConstraint=eastwest;rotatable=0;whiteSpace=wrap;html=1;fontSize=18;" parent="C4IJJKCAS7BINVU8155Y-100" vertex="1">
          <mxGeometry y="210" width="153" height="30" as="geometry" />
        </mxCell>
        <mxCell id="C4IJJKCAS7BINVU8155Y-109" value="ширина" style="text;strokeColor=none;fillColor=none;align=left;verticalAlign=middle;spacingLeft=4;spacingRight=4;overflow=hidden;points=[[0,0.5],[1,0.5]];portConstraint=eastwest;rotatable=0;whiteSpace=wrap;html=1;fontSize=18;" parent="C4IJJKCAS7BINVU8155Y-100" vertex="1">
          <mxGeometry y="240" width="153" height="30" as="geometry" />
        </mxCell>
        <mxCell id="C4IJJKCAS7BINVU8155Y-110" value="высота" style="text;strokeColor=none;fillColor=none;align=left;verticalAlign=middle;spacingLeft=4;spacingRight=4;overflow=hidden;points=[[0,0.5],[1,0.5]];portConstraint=eastwest;rotatable=0;whiteSpace=wrap;html=1;fontSize=18;" parent="C4IJJKCAS7BINVU8155Y-100" vertex="1">
          <mxGeometry y="270" width="153" height="30" as="geometry" />
        </mxCell>
        <mxCell id="C4IJJKCAS7BINVU8155Y-111" value="макс_скорость" style="text;strokeColor=none;fillColor=none;align=left;verticalAlign=middle;spacingLeft=4;spacingRight=4;overflow=hidden;points=[[0,0.5],[1,0.5]];portConstraint=eastwest;rotatable=0;whiteSpace=wrap;html=1;fontSize=18;" parent="C4IJJKCAS7BINVU8155Y-100" vertex="1">
          <mxGeometry y="300" width="153" height="30" as="geometry" />
        </mxCell>
        <mxCell id="C4IJJKCAS7BINVU8155Y-112" value="расход_топлива" style="text;strokeColor=none;fillColor=none;align=left;verticalAlign=middle;spacingLeft=4;spacingRight=4;overflow=hidden;points=[[0,0.5],[1,0.5]];portConstraint=eastwest;rotatable=0;whiteSpace=wrap;html=1;fontSize=18;" parent="C4IJJKCAS7BINVU8155Y-100" vertex="1">
          <mxGeometry y="330" width="153" height="30" as="geometry" />
        </mxCell>
        <mxCell id="C4IJJKCAS7BINVU8155Y-113" value="количество_в_наличии" style="text;strokeColor=none;fillColor=none;align=left;verticalAlign=middle;spacingLeft=4;spacingRight=4;overflow=hidden;points=[[0,0.5],[1,0.5]];portConstraint=eastwest;rotatable=0;whiteSpace=wrap;html=1;fontSize=18;" parent="C4IJJKCAS7BINVU8155Y-100" vertex="1">
          <mxGeometry y="360" width="153" height="30" as="geometry" />
        </mxCell>
        <mxCell id="C4IJJKCAS7BINVU8155Y-114" value="id_двигателя" style="text;strokeColor=none;fillColor=none;align=left;verticalAlign=middle;spacingLeft=4;spacingRight=4;overflow=hidden;points=[[0,0.5],[1,0.5]];portConstraint=eastwest;rotatable=0;whiteSpace=wrap;html=1;fontSize=18;" parent="C4IJJKCAS7BINVU8155Y-100" vertex="1">
          <mxGeometry y="390" width="153" height="30" as="geometry" />
        </mxCell>
        <mxCell id="C4IJJKCAS7BINVU8155Y-118" value="Модели" style="swimlane;fontStyle=0;childLayout=stackLayout;horizontal=1;startSize=30;horizontalStack=0;resizeParent=1;resizeParentMax=0;resizeLast=0;collapsible=1;marginBottom=0;whiteSpace=wrap;html=1;fontSize=18;" parent="1" vertex="1">
          <mxGeometry x="-1095" y="742" width="140" height="90" as="geometry" />
        </mxCell>
        <mxCell id="C4IJJKCAS7BINVU8155Y-119" value="id_модели" style="text;strokeColor=none;fillColor=none;align=left;verticalAlign=middle;spacingLeft=4;spacingRight=4;overflow=hidden;points=[[0,0.5],[1,0.5]];portConstraint=eastwest;rotatable=0;whiteSpace=wrap;html=1;fontSize=18;" parent="C4IJJKCAS7BINVU8155Y-118" vertex="1">
          <mxGeometry y="30" width="140" height="30" as="geometry" />
        </mxCell>
        <mxCell id="C4IJJKCAS7BINVU8155Y-120" value="название" style="text;strokeColor=none;fillColor=none;align=left;verticalAlign=middle;spacingLeft=4;spacingRight=4;overflow=hidden;points=[[0,0.5],[1,0.5]];portConstraint=eastwest;rotatable=0;whiteSpace=wrap;html=1;fontSize=18;" parent="C4IJJKCAS7BINVU8155Y-118" vertex="1">
          <mxGeometry y="60" width="140" height="30" as="geometry" />
        </mxCell>
        <mxCell id="C4IJJKCAS7BINVU8155Y-124" value="марки" style="swimlane;fontStyle=0;childLayout=stackLayout;horizontal=1;startSize=30;horizontalStack=0;resizeParent=1;resizeParentMax=0;resizeLast=0;collapsible=1;marginBottom=0;whiteSpace=wrap;html=1;fontSize=18;" parent="1" vertex="1">
          <mxGeometry x="-664" y="794" width="140" height="120" as="geometry" />
        </mxCell>
        <mxCell id="C4IJJKCAS7BINVU8155Y-125" value="id_марки" style="text;strokeColor=none;fillColor=none;align=left;verticalAlign=middle;spacingLeft=4;spacingRight=4;overflow=hidden;points=[[0,0.5],[1,0.5]];portConstraint=eastwest;rotatable=0;whiteSpace=wrap;html=1;fontSize=18;" parent="C4IJJKCAS7BINVU8155Y-124" vertex="1">
          <mxGeometry y="30" width="140" height="30" as="geometry" />
        </mxCell>
        <mxCell id="C4IJJKCAS7BINVU8155Y-126" value="название" style="text;strokeColor=none;fillColor=none;align=left;verticalAlign=middle;spacingLeft=4;spacingRight=4;overflow=hidden;points=[[0,0.5],[1,0.5]];portConstraint=eastwest;rotatable=0;whiteSpace=wrap;html=1;fontSize=18;" parent="C4IJJKCAS7BINVU8155Y-124" vertex="1">
          <mxGeometry y="60" width="140" height="30" as="geometry" />
        </mxCell>
        <mxCell id="C4IJJKCAS7BINVU8155Y-131" value="id_страны" style="text;strokeColor=none;fillColor=none;align=left;verticalAlign=middle;spacingLeft=4;spacingRight=4;overflow=hidden;points=[[0,0.5],[1,0.5]];portConstraint=eastwest;rotatable=0;whiteSpace=wrap;html=1;fontSize=18;" parent="C4IJJKCAS7BINVU8155Y-124" vertex="1">
          <mxGeometry y="90" width="140" height="30" as="geometry" />
        </mxCell>
        <mxCell id="C4IJJKCAS7BINVU8155Y-127" value="Страны" style="swimlane;fontStyle=0;childLayout=stackLayout;horizontal=1;startSize=30;horizontalStack=0;resizeParent=1;resizeParentMax=0;resizeLast=0;collapsible=1;marginBottom=0;whiteSpace=wrap;html=1;fontSize=18;" parent="1" vertex="1">
          <mxGeometry x="-449" y="855" width="140" height="120" as="geometry" />
        </mxCell>
        <mxCell id="C4IJJKCAS7BINVU8155Y-128" value="id_страны" style="text;strokeColor=none;fillColor=none;align=left;verticalAlign=middle;spacingLeft=4;spacingRight=4;overflow=hidden;points=[[0,0.5],[1,0.5]];portConstraint=eastwest;rotatable=0;whiteSpace=wrap;html=1;fontSize=18;" parent="C4IJJKCAS7BINVU8155Y-127" vertex="1">
          <mxGeometry y="30" width="140" height="30" as="geometry" />
        </mxCell>
        <mxCell id="C4IJJKCAS7BINVU8155Y-129" value="название" style="text;strokeColor=none;fillColor=none;align=left;verticalAlign=middle;spacingLeft=4;spacingRight=4;overflow=hidden;points=[[0,0.5],[1,0.5]];portConstraint=eastwest;rotatable=0;whiteSpace=wrap;html=1;fontSize=18;" parent="C4IJJKCAS7BINVU8155Y-127" vertex="1">
          <mxGeometry y="60" width="140" height="30" as="geometry" />
        </mxCell>
        <mxCell id="C4IJJKCAS7BINVU8155Y-132" value="код_страны" style="text;strokeColor=none;fillColor=none;align=left;verticalAlign=middle;spacingLeft=4;spacingRight=4;overflow=hidden;points=[[0,0.5],[1,0.5]];portConstraint=eastwest;rotatable=0;whiteSpace=wrap;html=1;fontSize=18;" parent="C4IJJKCAS7BINVU8155Y-127" vertex="1">
          <mxGeometry y="90" width="140" height="30" as="geometry" />
        </mxCell>
        <mxCell id="C4IJJKCAS7BINVU8155Y-137" style="edgeStyle=orthogonalEdgeStyle;rounded=0;orthogonalLoop=1;jettySize=auto;html=1;endArrow=ERmany;endFill=0;fontSize=18;" parent="1" source="C4IJJKCAS7BINVU8155Y-134" target="C4IJJKCAS7BINVU8155Y-114" edge="1">
          <mxGeometry relative="1" as="geometry" />
        </mxCell>
        <mxCell id="C4IJJKCAS7BINVU8155Y-134" value="Двигатели" style="swimlane;fontStyle=0;childLayout=stackLayout;horizontal=1;startSize=30;horizontalStack=0;resizeParent=1;resizeParentMax=0;resizeLast=0;collapsible=1;marginBottom=0;whiteSpace=wrap;html=1;fontSize=18;" parent="1" vertex="1">
          <mxGeometry x="-1095" y="842" width="140" height="90" as="geometry" />
        </mxCell>
        <mxCell id="C4IJJKCAS7BINVU8155Y-135" value="id_двигателя" style="text;strokeColor=none;fillColor=none;align=left;verticalAlign=middle;spacingLeft=4;spacingRight=4;overflow=hidden;points=[[0,0.5],[1,0.5]];portConstraint=eastwest;rotatable=0;whiteSpace=wrap;html=1;fontSize=18;" parent="C4IJJKCAS7BINVU8155Y-134" vertex="1">
          <mxGeometry y="30" width="140" height="30" as="geometry" />
        </mxCell>
        <mxCell id="C4IJJKCAS7BINVU8155Y-136" value="название" style="text;strokeColor=none;fillColor=none;align=left;verticalAlign=middle;spacingLeft=4;spacingRight=4;overflow=hidden;points=[[0,0.5],[1,0.5]];portConstraint=eastwest;rotatable=0;whiteSpace=wrap;html=1;fontSize=18;" parent="C4IJJKCAS7BINVU8155Y-134" vertex="1">
          <mxGeometry y="60" width="140" height="30" as="geometry" />
        </mxCell>
        <mxCell id="C4IJJKCAS7BINVU8155Y-140" style="edgeStyle=orthogonalEdgeStyle;rounded=0;orthogonalLoop=1;jettySize=auto;html=1;endArrow=ERmany;endFill=0;fontSize=18;" parent="1" source="C4IJJKCAS7BINVU8155Y-51" target="C4IJJKCAS7BINVU8155Y-48" edge="1">
          <mxGeometry relative="1" as="geometry" />
        </mxCell>
        <mxCell id="C4IJJKCAS7BINVU8155Y-141" style="edgeStyle=orthogonalEdgeStyle;rounded=0;orthogonalLoop=1;jettySize=auto;html=1;endArrow=ERmany;endFill=0;fontSize=18;" parent="1" source="C4IJJKCAS7BINVU8155Y-128" target="C4IJJKCAS7BINVU8155Y-131" edge="1">
          <mxGeometry relative="1" as="geometry" />
        </mxCell>
        <mxCell id="C4IJJKCAS7BINVU8155Y-142" style="edgeStyle=orthogonalEdgeStyle;rounded=0;orthogonalLoop=1;jettySize=auto;html=1;endArrow=ERmany;endFill=0;fontSize=18;" parent="1" source="C4IJJKCAS7BINVU8155Y-125" target="C4IJJKCAS7BINVU8155Y-102" edge="1">
          <mxGeometry relative="1" as="geometry" />
        </mxCell>
        <mxCell id="C4IJJKCAS7BINVU8155Y-143" style="edgeStyle=orthogonalEdgeStyle;rounded=0;orthogonalLoop=1;jettySize=auto;html=1;entryX=0;entryY=0.5;entryDx=0;entryDy=0;endArrow=ERmany;endFill=0;fontSize=18;" parent="1" source="C4IJJKCAS7BINVU8155Y-119" target="C4IJJKCAS7BINVU8155Y-103" edge="1">
          <mxGeometry relative="1" as="geometry" />
        </mxCell>
        <mxCell id="C4IJJKCAS7BINVU8155Y-147" style="edgeStyle=orthogonalEdgeStyle;rounded=0;orthogonalLoop=1;jettySize=auto;html=1;endArrow=ERmany;endFill=0;fontSize=18;" parent="1" source="C4IJJKCAS7BINVU8155Y-22" target="C4IJJKCAS7BINVU8155Y-30" edge="1">
          <mxGeometry relative="1" as="geometry" />
        </mxCell>
        <mxCell id="C4IJJKCAS7BINVU8155Y-148" style="edgeStyle=orthogonalEdgeStyle;rounded=0;orthogonalLoop=1;jettySize=auto;html=1;endArrow=ERmany;endFill=0;fontSize=18;" parent="1" source="C4IJJKCAS7BINVU8155Y-58" target="C4IJJKCAS7BINVU8155Y-85" edge="1">
          <mxGeometry relative="1" as="geometry">
            <Array as="points">
              <mxPoint x="-555" y="153" />
              <mxPoint x="-555" y="437" />
            </Array>
          </mxGeometry>
        </mxCell>
        <mxCell id="C4IJJKCAS7BINVU8155Y-149" style="edgeStyle=orthogonalEdgeStyle;rounded=0;orthogonalLoop=1;jettySize=auto;html=1;entryX=0;entryY=0.5;entryDx=0;entryDy=0;endArrow=ERmany;endFill=0;fontSize=18;" parent="1" source="C4IJJKCAS7BINVU8155Y-101" target="C4IJJKCAS7BINVU8155Y-86" edge="1">
          <mxGeometry relative="1" as="geometry">
            <Array as="points">
              <mxPoint x="-895" y="527" />
              <mxPoint x="-895" y="377" />
            </Array>
          </mxGeometry>
        </mxCell>
        <mxCell id="C4IJJKCAS7BINVU8155Y-151" style="edgeStyle=orthogonalEdgeStyle;rounded=0;orthogonalLoop=1;jettySize=auto;html=1;endArrow=ERmany;endFill=0;fontSize=18;" parent="1" source="C4IJJKCAS7BINVU8155Y-91" target="C4IJJKCAS7BINVU8155Y-79" edge="1">
          <mxGeometry relative="1" as="geometry" />
        </mxCell>
        <mxCell id="C4IJJKCAS7BINVU8155Y-152" style="edgeStyle=orthogonalEdgeStyle;rounded=0;orthogonalLoop=1;jettySize=auto;html=1;endArrow=ERmany;endFill=0;fontSize=18;" parent="1" source="C4IJJKCAS7BINVU8155Y-101" target="C4IJJKCAS7BINVU8155Y-73" edge="1">
          <mxGeometry relative="1" as="geometry" />
        </mxCell>
        <mxCell id="C4IJJKCAS7BINVU8155Y-155" style="edgeStyle=orthogonalEdgeStyle;rounded=0;orthogonalLoop=1;jettySize=auto;html=1;endArrow=ERmany;endFill=0;fontSize=18;" parent="1" source="C4IJJKCAS7BINVU8155Y-101" target="C4IJJKCAS7BINVU8155Y-45" edge="1">
          <mxGeometry relative="1" as="geometry" />
        </mxCell>
        <mxCell id="7HUWechMGfeUVC8HPqex-1" style="edgeStyle=orthogonalEdgeStyle;rounded=0;orthogonalLoop=1;jettySize=auto;html=1;endArrow=ERmany;endFill=0;fontSize=18;" edge="1" parent="1" source="C4IJJKCAS7BINVU8155Y-15" target="C4IJJKCAS7BINVU8155Y-23">
          <mxGeometry relative="1" as="geometry" />
        </mxCell>
        <mxCell id="7HUWechMGfeUVC8HPqex-2" style="edgeStyle=orthogonalEdgeStyle;rounded=0;orthogonalLoop=1;jettySize=auto;html=1;endArrow=ERmany;endFill=0;fontSize=18;" edge="1" parent="1" source="C4IJJKCAS7BINVU8155Y-29" target="C4IJJKCAS7BINVU8155Y-47">
          <mxGeometry relative="1" as="geometry">
            <Array as="points">
              <mxPoint x="-1094" y="201" />
              <mxPoint x="-1094" y="620" />
            </Array>
          </mxGeometry>
        </mxCell>
        <mxCell id="7HUWechMGfeUVC8HPqex-3" style="edgeStyle=orthogonalEdgeStyle;rounded=0;orthogonalLoop=1;jettySize=auto;html=1;endArrow=ERmany;endFill=0;fontSize=18;" edge="1" parent="1" source="C4IJJKCAS7BINVU8155Y-29" target="C4IJJKCAS7BINVU8155Y-77">
          <mxGeometry relative="1" as="geometry">
            <Array as="points">
              <mxPoint x="-586" y="200" />
              <mxPoint x="-586" y="682" />
            </Array>
          </mxGeometry>
        </mxCell>
        <mxCell id="7HUWechMGfeUVC8HPqex-4" style="edgeStyle=orthogonalEdgeStyle;rounded=0;orthogonalLoop=1;jettySize=auto;html=1;endArrow=ERmany;endFill=0;fontSize=18;" edge="1" parent="1" source="C4IJJKCAS7BINVU8155Y-58" target="C4IJJKCAS7BINVU8155Y-77">
          <mxGeometry relative="1" as="geometry">
            <Array as="points">
              <mxPoint x="-332" y="155" />
              <mxPoint x="-332" y="677" />
            </Array>
          </mxGeometry>
        </mxCell>
      </root>
    </mxGraphModel>
  </diagram>
</mxfile>
